<?xml version="1.0" encoding="UTF-8"?>
<svg width="752pt" height="752pt" version="1.1" viewBox="0 0 752 752" xmlns="http://www.w3.org/2000/svg">
 <path d="m558.04 396.23c-3.375 0.011719-6.6602 1.082-9.3867 3.0664-2.7266 1.9844-4.7617 4.7773-5.8086 7.9844h-11.148v-62.551h11.148c1.5781 4.8672 5.3945 8.6836 10.262 10.266 4.8633 1.582 10.195 0.73828 14.336-2.2695 4.1406-3.0039 6.5898-7.8125 6.5898-12.93 0-5.1172-2.4492-9.9258-6.5898-12.934s-9.4727-3.8477-14.336-2.2656c-4.8672 1.582-8.6836 5.3984-10.262 10.266h-16.082c-2.7227 0-4.9336 2.207-4.9336 4.9336v31.273h-11.445c-0.64453-1.3906-1.5312-2.6602-2.6133-3.7461-16.914-16.516-35.98-30.672-56.684-42.082l21.164-34.531c1.2109 0.30078 2.4531 0.44922 3.6992 0.44531 4.2305-0.027344 8.2812-1.7305 11.258-4.7344 2.9766-3.0039 4.6406-7.0664 4.6289-11.297-0.015625-4.2305-1.7031-8.2852-4.6992-11.273-2.9961-2.9844-7.0547-4.6641-11.285-4.6641-4.2305 0-8.2891 1.6797-11.285 4.6641-2.9961 2.9883-4.6836 7.0391-4.6992 11.27 0.015625 3.8164 1.3789 7.5039 3.8477 10.41l-21.508 35.172c-19.098-9.582-39.941-15.188-61.27-16.477v-47.258h31.277c1.3086 0 2.5625-0.51953 3.4883-1.4453s1.4453-2.1797 1.4453-3.4883v-16.082c4.8672-1.5781 8.6836-5.3945 10.266-10.258 1.582-4.8672 0.73828-10.199-2.2656-14.336-3.0078-4.1406-7.8164-6.5938-12.934-6.5938-5.1172 0-9.9258 2.4531-12.934 6.5938-3.0078 4.1367-3.8477 9.4688-2.2656 14.336 1.582 4.8633 5.3984 8.6797 10.266 10.258v11.148h-62.551v-11.148c4.8672-1.5781 8.6836-5.3945 10.266-10.258 1.582-4.8672 0.73828-10.199-2.2695-14.336-3.0039-4.1406-7.8125-6.5938-12.93-6.5938-5.1172 0-9.9258 2.4531-12.934 6.5938-3.0078 4.1367-3.8477 9.4688-2.2656 14.336 1.582 4.8633 5.3984 8.6797 10.266 10.258v16.082c0 1.3086 0.51953 2.5625 1.4453 3.4883 0.92578 0.92578 2.1797 1.4453 3.4883 1.4453h31.273v47.258c-21.367 1.2305-42.254 6.8398-61.367 16.477l-21.508-35.172c2.5039-2.8945 3.9023-6.582 3.9453-10.41 0-4.2383-1.6836-8.3047-4.6797-11.301-2.9961-2.9961-7.0625-4.6797-11.301-4.6797-4.2422 0-8.3047 1.6836-11.305 4.6797-2.9961 2.9961-4.6797 7.0625-4.6797 11.301 0 4.2422 1.6836 8.3047 4.6797 11.305 3 2.9961 7.0625 4.6797 11.305 4.6797 1.2461 0.003907 2.4883-0.14453 3.6992-0.44531l21.164 34.531v0.003906c-20.699 11.438-39.762 25.609-56.684 42.129-1.082 1.0859-1.9688 2.3555-2.6133 3.7461h-11.543v-31.273c0-1.3086-0.51953-2.5625-1.4453-3.4883-0.92578-0.92578-2.1797-1.4453-3.4883-1.4453h-16.082c-1.582-4.8672-5.3945-8.6836-10.262-10.266-4.8672-1.582-10.195-0.74219-14.336 2.2656s-6.5898 7.8164-6.5898 12.934c0 5.1172 2.4492 9.9258 6.5898 12.93 4.1406 3.0078 9.4688 3.8516 14.336 2.2695 4.8672-1.582 8.6797-5.3984 10.262-10.266h11.148v62.551h-11.148c-1.582-4.8672-5.3945-8.6836-10.262-10.266-4.8672-1.582-10.195-0.74219-14.336 2.2656-4.1406 3.0078-6.5898 7.8164-6.5898 12.934 0 5.1172 2.4492 9.9258 6.5898 12.934 4.1406 3.0039 9.4688 3.8477 14.336 2.2656 4.8672-1.582 8.6797-5.3984 10.262-10.266h16.082c1.3086 0 2.5625-0.51953 3.4883-1.4453s1.4453-2.1797 1.4453-3.4883v-31.277h11.445-0.003906c0.64844 1.3945 1.5312 2.6641 2.6172 3.75 16.914 16.512 35.98 30.668 56.68 42.078l-21.164 34.531 0.003906 0.003906c-1.2109-0.30078-2.4531-0.44922-3.7031-0.44531-4.2305 0.027344-8.2773 1.7266-11.254 4.7344-2.9766 3.0039-4.6406 7.0664-4.6289 11.297 0.011719 4.2305 1.7031 8.2852 4.6992 11.27 2.9961 2.9883 7.0547 4.6641 11.285 4.6641s8.2852-1.6758 11.281-4.6641c2.9961-2.9844 4.6875-7.0391 4.6992-11.27-0.015625-3.8125-1.375-7.5-3.8477-10.406l21.559-35.223c19.086 9.5781 39.91 15.199 61.219 16.523v47.258l-31.273 0.003906c-2.7266 0-4.9336 2.207-4.9336 4.9336v16.082c-4.8672 1.5781-8.6836 5.3906-10.266 10.258s-0.74219 10.195 2.2656 14.336c3.0078 4.1406 7.8164 6.5898 12.934 6.5898 5.1172 0 9.9258-2.4492 12.93-6.5898 3.0078-4.1406 3.8516-9.4688 2.2695-14.336-1.582-4.8672-5.3984-8.6797-10.266-10.258v-11.152h62.551v11.152c-4.8672 1.5781-8.6836 5.3906-10.266 10.258s-0.74219 10.195 2.2656 14.336c3.0078 4.1406 7.8164 6.5898 12.934 6.5898 5.1172 0 9.9258-2.4492 12.934-6.5898 3.0039-4.1406 3.8477-9.4688 2.2656-14.336-1.582-4.8672-5.3984-8.6797-10.266-10.258v-16.082c0-1.3086-0.51953-2.5664-1.4453-3.4883-0.92578-0.92578-2.1797-1.4453-3.4883-1.4453h-31.277v-47.262c21.363-1.2734 42.242-6.8789 61.371-16.477l21.508 35.172v0.003906c-2.5078 2.8906-3.9062 6.582-3.9492 10.406 0 4.2422 1.6836 8.3047 4.6836 11.305 2.9961 2.9961 7.0625 4.6797 11.301 4.6797 4.2383 0 8.3047-1.6836 11.301-4.6797 3-3 4.6836-7.0625 4.6836-11.305 0-4.2383-1.6836-8.3047-4.6836-11.301-2.9961-2.9961-7.0625-4.6797-11.301-4.6797-1.2461-0.007813-2.4883 0.14453-3.6992 0.44141l-21.164-34.531c20.703-11.41 39.77-25.562 56.684-42.078 1.082-1.0898 1.9688-2.3594 2.6133-3.75h11.445v31.277c0 1.3047 0.51953 2.5625 1.4453 3.4883 0.92578 0.92188 2.1797 1.4414 3.4883 1.4414h16.082c1.2266 3.7461 3.7969 6.9062 7.2109 8.8711 3.418 1.9648 7.4375 2.6016 11.293 1.7812 3.8555-0.81641 7.2734-3.0312 9.5938-6.2148 2.3242-3.1836 3.3867-7.1133 2.9883-11.035s-2.2305-7.5547-5.1445-10.207c-2.918-2.6523-6.707-4.1328-10.648-4.1602zm0-62.551c2.4727 0 4.7031 1.4883 5.6484 3.7773 0.94922 2.2852 0.42578 4.9141-1.3242 6.6641s-4.3789 2.2734-6.668 1.3281c-2.2852-0.94922-3.7734-3.1797-3.7734-5.6523 0-3.3789 2.7383-6.1172 6.1172-6.1172zm-82.09-64.676c2.4648 0.042969 4.668 1.5586 5.582 3.8438 0.91406 2.2891 0.36719 4.9062-1.3867 6.6328-1.7578 1.7305-4.3828 2.2344-6.6562 1.2852-2.2734-0.95312-3.7539-3.1797-3.7539-5.6445 0-1.6367 0.66016-3.2109 1.8281-4.3594 1.168-1.1484 2.75-1.7812 4.3867-1.7578zm-69.852-48.246c0-3.375 2.7383-6.1172 6.1172-6.1172 3.3789 0 6.1172 2.7422 6.1172 6.1172 0 3.3789-2.7383 6.1172-6.1172 6.1172-3.3789 0-6.1172-2.7383-6.1172-6.1172zm-66.301 6.1172c-3.3789 0-6.1172-2.7383-6.1172-6.1172 0-3.375 2.7383-6.1172 6.1172-6.1172 3.3789 0 6.1172 2.7422 6.1172 6.1172 0 3.3789-2.7383 6.1172-6.1172 6.1172zm-63.734 54.266h-0.003906c-2.4727-0.039063-4.6797-1.5664-5.5859-3.8672-0.91016-2.3008-0.34375-4.9219 1.4336-6.6445 1.7773-1.7188 4.4141-2.1992 6.6836-1.2188 2.2695 0.98438 3.7266 3.2383 3.6875 5.7109 0 1.6406-0.66016 3.2109-1.8281 4.3633-1.168 1.1484-2.75 1.7812-4.3906 1.7539zm-82.09 64.773c-3.3789 0-6.1172-2.7383-6.1172-6.1172 0-3.3789 2.7383-6.1172 6.1172-6.1172s6.1172 2.7383 6.1172 6.1172c0 3.3789-2.7383 6.1172-6.1172 6.1172zm0 72.418c-2.4727 0-4.7031-1.4922-5.6523-3.7773-0.94531-2.2852-0.42188-4.918 1.3281-6.6641 1.75-1.75 4.3789-2.2734 6.6641-1.3281 2.2852 0.94922 3.7773 3.1797 3.7773 5.6523 0 1.6211-0.64453 3.1797-1.793 4.3242-1.1445 1.1484-2.7031 1.793-4.3242 1.793zm82.086 64.672c-2.4648-0.039062-4.6641-1.5547-5.5781-3.8438-0.91797-2.2891-0.37109-4.9023 1.3867-6.6328 1.7578-1.7266 4.3828-2.2344 6.6562-1.2812 2.2734 0.95312 3.7539 3.1758 3.7539 5.6406 0 1.6406-0.66016 3.2109-1.8281 4.3633-1.168 1.1484-2.75 1.7812-4.3906 1.7539zm69.855 48.246c0 3.3789-2.7383 6.1172-6.1172 6.1172-3.3789 0-6.1172-2.7383-6.1172-6.1172s2.7383-6.1172 6.1172-6.1172c3.3789 0 6.1172 2.7383 6.1172 6.1172zm66.301-6.1172c3.3789 0 6.1172 2.7383 6.1172 6.1172s-2.7383 6.1172-6.1172 6.1172c-3.3789 0-6.1172-2.7383-6.1172-6.1172s2.7383-6.1172 6.1172-6.1172zm63.734-54.266v0.003907c2.4766 0.039062 4.6797 1.5664 5.5898 3.8672s0.34375 4.9219-1.4336 6.6406c-1.7773 1.7227-4.4141 2.2031-6.6875 1.2188-2.2695-0.98047-3.7227-3.2344-3.6836-5.7109 0-1.6367 0.66016-3.2109 1.8281-4.3594 1.168-1.1484 2.75-1.7812 4.3867-1.7578zm-224.75-93.234c-0.46484-0.41016-0.73438-1.0039-0.73438-1.6289 0-0.62109 0.26953-1.2148 0.73438-1.625 10.605-10.508 41.637-38.625 81.051-52.438l0.003906-0.003906c-16.352 13.188-25.855 33.062-25.855 54.066 0 21.008 9.5039 40.883 25.855 54.07-39.465-13.863-70.445-41.934-81.055-52.441zm124.81 58.113c-15.844 0-31.039-6.293-42.242-17.496-11.203-11.207-17.496-26.402-17.496-42.246s6.293-31.039 17.496-42.242c11.203-11.203 26.398-17.496 42.242-17.496s31.039 6.293 42.246 17.496c11.203 11.203 17.496 26.398 17.496 42.242-0.011719 15.84-6.3125 31.027-17.512 42.23-11.203 11.199-26.391 17.5-42.23 17.512zm124.81-58.113c-10.559 10.457-41.438 38.477-80.902 52.34 16.297-13.195 25.766-33.047 25.766-54.016 0-20.973-9.4688-40.82-25.766-54.02 39.465 13.863 70.395 41.934 81.004 52.438v0.003906c0.46484 0.41016 0.73438 1.0039 0.73438 1.625 0 0.625-0.26953 1.2188-0.73438 1.6289zm57.223 40.699h0.003906c-3.3789 0-6.1172-2.7383-6.1172-6.1172 0-3.3789 2.7383-6.1172 6.1172-6.1172s6.1172 2.7383 6.1172 6.1172c0 3.3789-2.7383 6.1172-6.1172 6.1172zm-182.03-72.914c-8.1094 0-15.891 3.2227-21.625 8.9609-5.7383 5.7344-8.9609 13.516-8.9609 21.625 0 8.1133 3.2227 15.895 8.9609 21.629 5.7344 5.7344 13.516 8.957 21.625 8.957 8.1133 0 15.895-3.2227 21.629-8.957s8.957-13.516 8.957-21.629c-0.011719-8.1055-3.2383-15.879-8.9727-21.613-5.7305-5.7305-13.504-8.957-21.613-8.9727zm0 51.305c-5.4922 0-10.762-2.1797-14.648-6.0664-3.8867-3.8867-6.0703-9.1562-6.0703-14.652 0-5.4922 2.1836-10.762 6.0703-14.648 3.8867-3.8867 9.1562-6.0703 14.648-6.0703 5.4961 0 10.766 2.1836 14.652 6.0703 3.8867 3.8867 6.0664 9.1562 6.0664 14.648-0.011719 5.4922-2.1992 10.754-6.082 14.637-3.8828 3.8828-9.1445 6.0703-14.637 6.082z"/>
</svg>
