<?xml version="1.0" encoding="UTF-8"?>
<svg width="752pt" height="752pt" version="1.1" viewBox="0 0 752 752" xmlns="http://www.w3.org/2000/svg">
 <path d="m376 233.79c21.254 0 40.508 8.6211 54.43 22.547 13.93 13.922 22.547 33.176 22.547 54.43 0 21.254-8.6211 40.508-22.547 54.43-13.922 13.93-33.176 22.547-54.43 22.547s-40.508-8.6211-54.43-22.547c-13.93-13.922-22.547-33.176-22.547-54.43 0-21.254 8.6211-40.508 22.547-54.43 13.922-13.93 33.176-22.547 54.43-22.547zm0-70.902c58.844 0 112.13 23.855 150.7 62.418s62.418 91.852 62.418 150.7-23.855 112.13-62.418 150.7-91.852 62.418-150.7 62.418-112.13-23.855-150.7-62.418-62.418-91.852-62.418-150.7 23.855-112.13 62.418-150.7 91.852-62.418 150.7-62.418zm140.65 72.465c-35.988-35.988-85.727-58.258-140.65-58.258s-104.66 22.27-140.65 58.258c-35.988 35.988-58.258 85.727-58.258 140.65s22.27 104.66 58.258 140.65c35.988 35.988 85.727 58.258 140.65 58.258s104.66-22.27 140.65-58.258c35.988-35.988 58.258-85.727 58.258-140.65s-22.27-104.66-58.258-140.65zm-26.793 183.03c14.039 14.039 22.754 33.422 22.754 54.738 0 32.281-36.184 52.484-82.48 60.93-17.188 3.1328-35.727 4.7031-54.129 4.7031-18.398 0-36.934-1.5703-54.121-4.7031-46.305-8.4453-82.488-28.648-82.488-60.93 0-21.316 8.7148-40.699 22.754-54.738 14.039-14.039 33.422-22.762 54.742-22.762h118.23c21.324 0 40.703 8.7188 54.742 22.762z" fill-rule="evenodd"/>
</svg>
